<?xml version="1.0" encoding="UTF-8" standalone="no"?>
<!-- Created with Inkscape (http://www.inkscape.org/) -->

<svg
   width="210mm"
   height="297mm"
   viewBox="0 0 210 297"
   version="1.1"
   id="svg281"
   xmlns="http://www.w3.org/2000/svg"
   xmlns:svg="http://www.w3.org/2000/svg">
  <defs
     id="defs278" />
  <g
     id="layer1">
    <g
       id="g314"
       transform="translate(29.425684,45.379896)">
      <path
         d="m 107.14756,113.67984 h 1.61092 l 0.81291,-0.0673 0.0372,0.0596 -0.082,0.79809 -1.08151,-0.0222 h -1.91671 l -0.57418,0.0299 v -0.72373 l 2.40891,-3.33357 h -1.52143 l -0.8129,0.0669 -0.0447,-0.0521 0.0745,-0.79798 1.21891,0.003 c 0.2733,-0.38519 0.56311,-0.8268 0.71569,-1.05692 l 0.0868,-0.0222 0.53951,0.24529 0.0254,0.0645 c -0.16292,0.16669 -0.41713,0.47269 -0.67811,0.77089 l 1.105,0.003 0.46228,-0.007 v 0.7383 l -2.3865,3.30408 z m -7.403574,-4.8732 0.02519,0.0645 c -0.161219,0.165 -0.411903,0.46659 -0.669889,0.762 0.408305,0.086 0.740586,0.27249 0.996493,0.5599 0.36551,0.4101 0.54828,0.9931 0.54828,1.74879 0,0.82539 -0.19769,1.46191 -0.59298,1.90962 -0.395392,0.44718 -0.955815,0.67098 -1.68169,0.67098 -0.676311,0 -1.197011,-0.21018 -1.56263,-0.63041 -0.365477,-0.41977 -0.548181,-1.01519 -0.548181,-1.78608 0,-0.81019 0.197697,-1.43429 0.592984,-1.87201 0.379201,-0.41949 0.910414,-0.638 1.593921,-0.6549 0.259891,-0.3701 0.527473,-0.77759 0.672077,-0.99551 l 0.08682,-0.0222 z m 3.540194,4.91021 c 0.79051,0 1.18579,-0.53919 1.18579,-1.61809 0,-0.58681 -0.0957,-1.01321 -0.28709,-1.27931 -0.19152,-0.26599 -0.49099,-0.39878 -0.8987,-0.39878 -0.26352,0 -0.54451,0.0124 -0.84271,0.037 l -0.0449,2.4687 0.0224,0.7383 c 0.34823,0.0348 0.63652,0.0522 0.86522,0.0522 z m 0.0745,-4.10189 c 0.6961,0 1.2307,0.19399 1.60358,0.58198 0.37279,0.3877 0.5593,0.9447 0.5593,1.67061 0,0.85009 -0.20888,1.50139 -0.6265,1.954 -0.41758,0.45241 -1.0142,0.6785 -1.78999,0.6785 -0.54681,0 -1.1061,-0.0172 -1.67792,-0.052 l 0.0522,-1.43221 -0.0522,-3.37089 z m -4.914831,0.78331 c -0.397792,0 -0.685976,0.12287 -0.865082,0.36897 -0.178999,0.2462 -0.268605,0.64763 -0.268605,1.20452 0,0.63649 0.0883,1.09019 0.264795,1.36098 0.176495,0.27111 0.468701,0.40683 0.876406,0.40683 0.397616,0 0.686012,-0.12432 0.865188,-0.3731 0.178928,-0.24853 0.268322,-0.65631 0.268322,-1.22301 0,-0.63151 -0.08812,-1.0802 -0.264795,-1.3462 -0.17653,-0.26621 -0.468524,-0.39899 -0.876229,-0.39899 z m -2.468704,4.04978 h -2.6029 l 0.05973,-1.43221 -0.0075,-0.41758 -0.447393,0.23139 -0.09691,-0.045 -0.178999,-0.589 0.708519,-0.36562 -0.03743,-2.1851 h 1.036814 l -0.02981,1.68529 0.76073,-0.38749 0.09677,0.0445 0.179105,0.58187 -1.051595,0.5444 -0.01489,0.8128 0.0224,0.68623 h 1.610889 l 0.05969,0.082 z m -6.175198,-2.53601 c 0.571817,0.79572 1.185827,1.5712 1.842205,2.32703 l -0.01499,0.11179 c -0.308186,0.0747 -0.63881,0.13201 -0.991905,0.17159 l -0.119204,-0.0597 c -0.716103,-0.9694 -1.292789,-1.79729 -1.730375,-2.48341 l -0.01503,0.94699 0.03743,1.52171 h -1.014413 l 0.0598,-1.43221 -0.0598,-3.37089 h 1.029406 l -0.0374,2.23012 1.34239,-1.76781 0.276084,-0.46231 h 1.096328 z m -4.981998,-1.51377 c -0.397793,0 -0.686188,0.12287 -0.865082,0.36897 -0.178999,0.2462 -0.268499,0.64763 -0.268499,1.20452 0,0.63649 0.08819,1.09019 0.264689,1.36098 0.176495,0.27111 0.468701,0.40683 0.876406,0.40683 0.397686,0 0.686011,-0.12432 0.865187,-0.3731 0.178929,-0.24853 0.268323,-0.65631 0.268323,-1.22301 0,-0.63151 -0.08812,-1.0802 -0.264795,-1.3462 -0.176424,-0.26621 -0.468524,-0.39899 -0.876229,-0.39899 z m 0.0895,-0.82053 c 0.676205,0 1.197011,0.20521 1.562524,0.61532 0.365407,0.4101 0.548075,0.9931 0.548075,1.74879 0,0.82539 -0.197591,1.46191 -0.592772,1.90962 -0.395323,0.44718 -0.955922,0.67098 -1.681798,0.67098 -0.67631,0 -1.19701,-0.21018 -1.562629,-0.63041 -0.365372,-0.41977 -0.548181,-1.01519 -0.548181,-1.78608 0,-0.81019 0.197802,-1.43429 0.592984,-1.87201 0.395323,-0.43759 0.955922,-0.65621 1.681797,-0.65621 z m -2.56547,4.87031 h -2.595527 l 0.05232,-1.43221 -0.05232,-3.37089 h 1.029229 l -0.05962,3.28139 0.0223,0.68623 h 1.610889 l 0.05973,0.082 z"
         style="fill:#36454f;fill-opacity:1;fill-rule:nonzero;stroke:none;stroke-width:0.352778"
         id="path31" />
      <path
         d="m 20.853283,108.09495 c -0.29859,-0.68538 -0.55721,-1.33498 -0.7717,-1.93008 -0.61652,-1.7102 -0.92481,-2.8205 -0.92481,-6.12913 V 88.565064 c 0.97871,-2.840425 7.4525,-4.248326 15.05239,-4.248326 7.59989,0 14.07351,1.407901 15.05222,4.248326 v 2.782182 l -23.52132,3.706813 -0.54747,-0.675288 -0.73463,0.115888 -0.68058,0.868997 -0.80112,2.068513 15.59673,-2.733111 -16.21522,4.120903 c -0.5177,0.701993 -1.20241,1.657879 -1.64299,2.130989 -0.0463,0.0498 -0.0792,0.1106 -0.089,0.17332 -0.0214,0.1361 0.0738,0.22867 0.21301,0.20669 0.0402,-0.006 0.0796,-0.0216 0.11578,-0.0433 1.25511,-0.74919 3.03791,-0.17409 2.76891,1.53741 -0.0765,0.48609 -0.30899,0.96019 -0.63979,1.36659 -0.87013,1.1866 -1.61001,2.49071 -2.23041,3.90331"
         style="fill:#871421;fill-opacity:1;fill-rule:evenodd;stroke:none;stroke-width:0.352778"
         id="path33" />
      <path
         d="m 34.209163,121.92345 c -0.1143,0 -0.23639,-0.007 -0.44167,-0.0229 -3.32772,-0.24899 -6.47891,-3.23398 -8.98201,-6.77799 l -4.4649,0.0746 7.1005,-1.92567 c -0.01,-0.0606 -0.0181,-0.1227 -0.0246,-0.1862 -0.0745,-0.7227 0.0592,-1.63181 0.31722,-2.65151 l 1.238,-3.29159 c 0.33451,-1.0698 0.40069,-1.58941 0.9924,-1.92413 0.6246,-0.49039 6.9075,-1.6396 8.79391,-2.19639 0.14809,-0.0434 0.2365,-0.21029 0.20408,-0.32219 -0.0905,-0.312 -0.1119,-0.66689 -0.0512,-1.05209 0.29771,-1.894523 1.7719,-2.818907 3.43538,-3.326519 l 4.83091,-1.473905 0.0874,-0.555696 c 1.94289,-0.563386 3.81278,-1.107087 5.769395,-1.704093 l -3.752605,2.420197 v 3.028386 c 0,3.30863 -0.30829,4.41893 -0.9248,6.12913 -1.9448,5.3963 -7.5123,15.27397 -13.68591,15.73568 -0.20518,0.0154 -0.32738,0.0229 -0.4415,0.0229 z m 0.54751,-21.8803 c -0.66029,0.7088 -0.73339,1.66412 -0.26349,2.39081 -0.11631,-0.056 -0.228,-0.1216 -0.33411,-0.1977 -0.72119,-0.51481 -0.98019,-1.3475 -0.74048,-2.1089 -0.83154,0.20059 -1.5458,0.92018 -1.69051,1.77708 l -7.80592,3.00503 12.52622,-1.93121 c 0.91201,-0.1403 1.7719,-0.99021 1.91199,-1.88161 l 0.0353,-0.22419 c 0.14009,-0.891401 -0.49121,-1.502694 -1.40272,-1.359114 -0.66851,0.105304 -1.33798,0.203024 -2.0054,0.314819 -0.0784,0.06269 -0.15508,0.133385 -0.23089,0.214985"
         style="fill:#36454f;fill-opacity:1;fill-rule:evenodd;stroke:none;stroke-width:0.352778"
         id="path35" />
      <path
         d="m 130.38746,106.84686 -0.18598,-0.9766 -0.19759,-0.69751 -1.46491,-0.0349 -1.2905,0.0349 -0.1977,0.61602 -0.19762,1.05809 h -1.55797 l 2.5346,-7.487501 h 1.87187 l 2.2902,7.487501 z m -1.6044,-6.01091 h -0.10459 l -1.02309,3.1159 0.9998,0.0233 1.01149,-0.0233 z m -6.8417,2.05799 c 0.8914,1.24012 1.84852,2.44913 2.87183,3.62723 l -0.0233,0.17448 c -0.48049,0.1161 -0.996,0.2055 -1.5464,0.26741 l -0.18588,-0.093 c -1.11623,-1.51141 -2.01532,-2.80201 -2.69731,-3.87153 l -0.0233,1.47652 0.0581,2.3718 h -1.58108 l 0.093,-2.23249 -0.093,-5.255011 h 1.6044 l -0.0581,3.476201 2.09268,-2.75519 0.43021,-0.721011 h 1.70889 z m -4.49417,-2.23248 -1.40681,-0.0697 h -0.465 l -0.0581,3.88331 0.0697,2.3718 h -1.58112 l 0.0814,-2.23249 -0.0583,-4.02262 h -0.465 l -1.42991,0.0697 -0.1047,-0.12781 0.1047,-1.174291 h 5.31312 l 0.093,0.128093 z m -4.86813,7.89418 c -0.43398,0.3876 -0.84479,0.58152 -1.23239,0.58152 -0.31771,0 -0.5697,-0.0932 -0.75561,-0.27891 -0.18609,-0.18609 -0.27909,-0.43409 -0.27909,-0.74418 0,-0.19371 0.0426,-0.38573 0.12781,-0.57552 0.0854,-0.1898 0.23651,-0.42041 0.4535,-0.69169 h -0.34879 l -0.18613,-0.9766 -0.19748,-0.69751 -1.46491,-0.0349 -1.2906,0.0349 -0.1977,0.61602 -0.19748,1.05809 h -1.55801 l 2.52289,-7.487501 h 1.88351 l 2.29031,7.487501 h -0.50003 c -0.32547,0.45709 -0.48828,0.80221 -0.48828,1.03469 0,0.2558 0.13568,0.38351 0.40711,0.38351 0.25569,0 0.51928,-0.11222 0.79057,-0.33701 h 0.0812 z m -3.639,-7.71969 h -0.10467 l -1.02302,3.1159 0.9882,0.0233 1.02309,-0.0233 z m -4.97018,6.01091 h -1.58112 l 0.0814,-2.23249 -0.0814,-5.255011 h 1.6044 l -0.093,5.115701 z m -5.133591,-7.580211 c 0.6356,0 1.267181,0.127599 1.895091,0.383398 l -0.2558,1.360413 -0.23252,0.0929 c -0.263595,-0.18588 -0.536786,-0.3332 -0.819678,-0.44189 -0.282822,-0.10851 -0.540703,-0.16259 -0.773219,-0.16259 -0.30988,0 -0.557988,0.0833 -0.743902,0.25008 -0.18609,0.16662 -0.279083,0.35821 -0.279083,0.57531 0,0.22479 0.102694,0.4149 0.308081,0.56981 0.205423,0.15497 0.529026,0.33718 0.970703,0.54638 0.426403,0.19392 0.773219,0.37391 1.040624,0.5407 0.267474,0.16662 0.495974,0.38569 0.685874,0.6568 0.1899,0.2714 0.28483,0.60449 0.28483,0.99992 0,0.42608 -0.11613,0.8158 -0.34862,1.16829 -0.23269,0.35278 -0.56211,0.6319 -0.988302,0.83728 -0.426191,0.20543 -0.918492,0.30801 -1.476587,0.30801 -0.736318,0 -1.476622,-0.15899 -2.220524,-0.47688 l 0.220803,-1.46491 0.174519,-0.0927 c 0.309986,0.27132 0.649076,0.47861 1.017306,0.6217 0.368088,0.14362 0.695572,0.21509 0.982274,0.21509 0.341101,0 0.606602,-0.0831 0.796502,-0.24987 0.1899,-0.16673 0.284797,-0.36601 0.284797,-0.59853 0,-0.248 -0.102693,-0.44958 -0.308081,-0.6048 -0.205422,-0.1548 -0.536821,-0.34089 -0.994021,-0.55788 -0.418571,-0.1863 -0.759566,-0.3604 -1.023197,-0.5231 -0.26349,-0.16302 -0.48828,-0.38001 -0.674194,-0.6513 -0.18609,-0.27122 -0.279188,-0.6005 -0.279188,-0.9882 0,-0.43409 0.116381,-0.8273 0.348897,-1.18011 0.232481,-0.35271 0.557989,-0.629499 0.976595,-0.831183 0.418606,-0.201612 0.895209,-0.302118 1.43002,-0.302118 z m -3.923912,6.405911 -0.104704,1.1743 h -4.696989 l 0.08138,-2.23249 -0.08138,-5.255011 h 4.743485 l 0.09299,0.128093 -0.116205,1.174008 -1.790383,-0.058 -1.34881,0.0116 -0.03478,1.80227 1.290496,0.0231 1.220788,-0.0348 0.09299,0.11599 -0.104599,1.1745 -1.325491,-0.0349 -1.197505,0.0116 -0.0115,0.80222 0.03482,1.12779 1.31378,0.0116 1.848626,-0.0699 z m -6.587701,1.1743 h -1.581115 l 0.08142,-2.23249 -0.08142,-5.255011 h 1.604398 l -0.09299,5.115701 z m -7.175395,-1.1974 h 2.511108 l 1.267178,-0.10492 0.05831,0.0932 -0.127812,1.2439 -1.685995,-0.0348 h -2.987887 l -0.895103,0.0465 v -1.1279 l 3.755179,-5.1968 h -2.371796 l -1.267178,0.1047 -0.06971,-0.0816 0.1161,-1.243892 4.696989,0.0115 0.720901,-0.0115 v 1.151012 z m -6.3107,-6.336492 c 1.08518,0 1.9183,0.30219 2.499678,0.906992 0.581307,0.60431 0.872101,1.4726 0.872101,2.6041 0,1.32549 -0.325684,2.34089 -0.976594,3.0462 -0.651087,0.70538 -1.581291,1.05798 -2.790402,1.05798 -0.852699,0 -1.724589,-0.0271 -2.615988,-0.0814 l 0.08139,-2.23249 -0.08139,-5.255011 z m -0.116099,6.394592 c 1.232182,0 1.848485,-0.84102 1.848485,-2.523 0,-0.91471 -0.14919,-1.57931 -0.447605,-1.9939 -0.298379,-0.41472 -0.765492,-0.62201 -1.40088,-0.62201 -0.410916,0 -0.848819,0.0193 -1.313815,0.0581 l -0.06978,3.84831 0.03478,1.15108 c 0.542608,0.0542 0.992117,0.0814 1.348811,0.0814 z m -14.731118,-2.81362 c 0.891399,1.24012 1.84852,2.44913 2.871717,3.62723 l -0.02332,0.17448 c -0.480483,0.1161 -0.995891,0.2055 -1.546295,0.26741 l -0.185985,-0.093 c -1.116118,-1.51141 -2.015207,-2.80201 -2.697197,-3.87153 l -0.02332,1.47652 0.0581,2.3718 h -1.58108 l 0.09299,-2.23249 -0.09299,-5.255011 h 1.604398 l -0.0581,3.476201 2.092678,-2.75519 0.430212,-0.721011 h 1.708891 z m 6.249811,-3.627291 c 0.635494,0 1.267213,0.127599 1.894981,0.383398 l -0.255799,1.360413 -0.23248,0.0929 c -0.26349,-0.18588 -0.536611,-0.3332 -0.819609,-0.44189 -0.282893,-0.10851 -0.540597,-0.16259 -0.773113,-0.16259 -0.310091,0 -0.558094,0.0833 -0.744078,0.25008 -0.186091,0.16662 -0.279012,0.35821 -0.279012,0.57531 0,0.22479 0.102623,0.4149 0.30801,0.56981 0.205493,0.15497 0.52899,0.33718 0.970915,0.54638 0.426191,0.19392 0.773077,0.37391 1.040377,0.5407 0.267511,0.16662 0.496111,0.38569 0.686011,0.6568 0.189901,0.2714 0.284904,0.60449 0.284904,0.99992 0,0.42608 -0.116311,0.8158 -0.348792,1.16829 -0.232621,0.35278 -0.561904,0.6319 -0.988201,0.83728 -0.426332,0.20543 -0.918527,0.30801 -1.476516,0.30801 -0.736494,0 -1.476586,-0.15899 -2.220701,-0.47688 l 0.220804,-1.46491 0.174484,-0.0927 c 0.310021,0.27132 0.649111,0.47861 1.017305,0.6217 0.368124,0.14362 0.695607,0.21509 0.98231,0.21509 0.341207,0 0.606601,-0.0831 0.796502,-0.24987 0.1899,-0.16673 0.284797,-0.36601 0.284797,-0.59853 0,-0.248 -0.102588,-0.44958 -0.30801,-0.6048 -0.205493,-0.1548 -0.536787,-0.34089 -0.994093,-0.55788 -0.418394,-0.1863 -0.759601,-0.3604 -1.023091,-0.5231 -0.263595,-0.16302 -0.488315,-0.38001 -0.674405,-0.6513 -0.185914,-0.27122 -0.278906,-0.6005 -0.278906,-0.9882 0,-0.43409 0.116205,-0.8273 0.348721,-1.18011 0.232586,-0.35271 0.5582,-0.629499 0.976595,-0.831183 0.41857,-0.201612 0.895173,-0.302118 1.43009,-0.302118"
         style="fill:#871421;fill-opacity:1;fill-rule:nonzero;stroke:none;stroke-width:0.352778"
         id="path37" />
    </g>
  </g>
</svg>
